<svg width="1200" height="360" viewBox="0 0 1200 360" fill="none" xmlns="http://www.w3.org/2000/svg" role="img" aria-labelledby="title desc">
  <title id="title">iGentic logo lockup</title>
  <desc id="desc">iGentic logo mark with wordmark and tagline.</desc>
  <defs>
    <linearGradient id="ring" x1="70" y1="70" x2="260" y2="290" gradientUnits="userSpaceOnUse">
      <stop offset="0" stop-color="#D8DEE9"/>
      <stop offset="0.55" stop-color="#8EC5FF"/>
      <stop offset="1" stop-color="#3B82F6"/>
    </linearGradient>
    <linearGradient id="graphite" x1="120" y1="90" x2="210" y2="285" gradientUnits="userSpaceOnUse">
      <stop offset="0" stop-color="#94A3B8"/>
      <stop offset="1" stop-color="#111827"/>
    </linearGradient>
  </defs>
  <rect width="1200" height="360" rx="48" fill="#F8FAFC"/>
  <g transform="translate(52 42) scale(0.56)">
    <rect x="40" y="40" width="432" height="432" rx="104" fill="#FFFFFF"/>
    <rect x="40" y="40" width="432" height="432" rx="104" stroke="#E5E7EB" stroke-width="4"/>
    <path d="M340 146C315 122 284 110 249 110C174 110 114 170 114 245C114 319 174 379 249 379C302 379 347 349 369 305H252" stroke="url(#ring)" stroke-width="36" stroke-linecap="round" stroke-linejoin="round"/>
    <path d="M202 190V338" stroke="url(#graphite)" stroke-width="34" stroke-linecap="round"/>
    <circle cx="202" cy="143" r="18" fill="#8EC5FF"/>
    <path d="M252 305H369V347" stroke="#3B82F6" stroke-width="24" stroke-linecap="round" stroke-linejoin="round"/>
  </g>
  <text x="360" y="170" fill="#111827" font-family="-apple-system, BlinkMacSystemFont, Segoe UI, system-ui, sans-serif" font-size="82" font-weight="400" letter-spacing="-2">iGentic</text>
  <text x="366" y="226" fill="#64748B" font-family="-apple-system, BlinkMacSystemFont, Segoe UI, system-ui, sans-serif" font-size="22" font-weight="500" letter-spacing="7">LOCAL-FIRST AI CONTROL LAYER</text>
  <path d="M366 256H732" stroke="#D8DEE9" stroke-width="2"/>
  <text x="366" y="298" fill="#475569" font-family="-apple-system, BlinkMacSystemFont, Segoe UI, system-ui, sans-serif" font-size="20" font-weight="400">Approval-gated. Audit-ready. Controlled delegation.</text>
</svg>
