<svg width="512" height="512" viewBox="0 0 512 512" fill="none" xmlns="http://www.w3.org/2000/svg" role="img" aria-labelledby="title desc">
  <title id="title">iGentic logo mark</title>
  <desc id="desc">A minimal lowercase i inside an open uppercase G control ring, representing local identity, guardrails and controlled delegation.</desc>
  <defs>
    <linearGradient id="ring" x1="128" y1="96" x2="392" y2="408" gradientUnits="userSpaceOnUse">
      <stop offset="0" stop-color="#D8DEE9"/>
      <stop offset="0.55" stop-color="#8EC5FF"/>
      <stop offset="1" stop-color="#3B82F6"/>
    </linearGradient>
    <linearGradient id="graphite" x1="176" y1="120" x2="280" y2="390" gradientUnits="userSpaceOnUse">
      <stop offset="0" stop-color="#94A3B8"/>
      <stop offset="1" stop-color="#111827"/>
    </linearGradient>
  </defs>
  <rect x="40" y="40" width="432" height="432" rx="104" fill="#F8FAFC"/>
  <rect x="40" y="40" width="432" height="432" rx="104" stroke="#E5E7EB" stroke-width="4"/>
  <path d="M340 146C315 122 284 110 249 110C174 110 114 170 114 245C114 319 174 379 249 379C302 379 347 349 369 305H252" stroke="url(#ring)" stroke-width="36" stroke-linecap="round" stroke-linejoin="round"/>
  <path d="M202 190V338" stroke="url(#graphite)" stroke-width="34" stroke-linecap="round"/>
  <circle cx="202" cy="143" r="18" fill="#8EC5FF"/>
  <path d="M252 305H369V347" stroke="#3B82F6" stroke-width="24" stroke-linecap="round" stroke-linejoin="round"/>
  <path d="M120 392H172C184 392 190 407 200 407H312C322 407 328 392 340 392H392" stroke="#8EC5FF" stroke-width="8" stroke-linecap="round"/>
  <circle cx="120" cy="392" r="10" fill="#F8FAFC" stroke="#3B82F6" stroke-width="5"/>
  <circle cx="392" cy="392" r="10" fill="#F8FAFC" stroke="#3B82F6" stroke-width="5"/>
</svg>
